<?xml version="1.0" standalone="no"?>
<!DOCTYPE svg PUBLIC "-//W3C//DTD SVG 20010904//EN"
 "http://www.w3.org/TR/2001/REC-SVG-20010904/DTD/svg10.dtd">
<svg version="1.0" xmlns="http://www.w3.org/2000/svg"
 width="200.000000pt" height="200.000000pt" viewBox="0 0 200.000000 200.000000"
 preserveAspectRatio="xMidYMid meet">
<metadata>
Created by potrace 1.14, written by Peter Selinger 2001-2017
</metadata>
<g transform="translate(0.000000,200.000000) scale(0.100000,-0.100000)"
fill="#000000" stroke="none">
<path d="M765 1785 c-126 -69 -234 -130 -240 -136 -6 -6 -10 -103 -11 -260 0
-137 -3 -251 -5 -252 -2 -2 -106 -59 -231 -127 -126 -68 -228 -128 -229 -134
-4 -55 -3 -500 1 -512 3 -9 28 -28 55 -43 253 -139 424 -231 429 -231 3 0 45
22 93 49 80 44 501 273 633 344 30 17 93 51 140 77 47 26 130 71 185 100 55
29 114 61 132 72 17 10 67 38 111 61 43 23 89 49 102 58 l23 15 0 263 1 263
-155 85 c-85 46 -188 103 -229 125 -41 22 -181 98 -311 169 -129 70 -242 131
-250 134 -8 3 -117 -51 -244 -120z m681 -416 l-1 -231 -75 -40 c-41 -22 -135
-74 -208 -114 -73 -41 -135 -74 -138 -74 -2 0 -3 104 -2 231 l3 230 25 15 c49
29 385 212 391 213 3 1 5 -103 5 -230z m465 -41 c1 -7 2 -104 2 -216 2 -195
-2 -242 -21 -242 -5 0 -56 -27 -114 -59 -59 -32 -139 -76 -180 -97 -40 -21
-81 -44 -90 -52 -21 -18 -19 -40 -22 228 -1 107 1 203 3 213 2 10 13 23 25 28
11 5 28 13 36 19 8 5 65 36 125 69 61 32 135 73 165 90 62 34 70 36 71 19z
m-465 -467 l0 -230 -90 -50 c-50 -27 -145 -79 -211 -115 l-120 -66 -3 228 c-3
260 -15 227 107 293 36 19 102 55 146 79 103 56 168 90 170 90 1 0 1 -103 1
-229z m-466 -253 c0 -231 0 -233 -23 -244 -12 -6 -105 -57 -207 -113 -102 -55
-188 -101 -191 -101 -3 0 -5 102 -5 226 1 214 2 226 21 240 11 8 96 56 190
107 93 51 179 97 190 104 11 6 21 11 23 12 1 1 2 -104 2 -231z"/>
</g>
</svg>
